<svg id="SvgjsSvg1086" width="100%" height="100%" xmlns="http://www.w3.org/2000/svg" version="1.1" xlink="http://www.w3.org/1999/xlink" xmlns:svgjs="http://svgjs.com/svgjs" preserveAspectRatio="xMidYMid meet" viewBox="2.1072528610943664e-8 2.076800287298397e-9 300 67.79523468017578" overflow="visible"><defs id="SvgjsDefs1087"></defs><g id="SvgjsG1088" transform="scale(0.8498198381943028)" opacity="1"><g id="SvgjsG1089" class="sR5MZcEtd" transform="translate(-11.284433182528096, -11.284432206501132) scale(1.023438434888128)" light-content="false" non-strokable="false" fill="#195bcc"><path d="M50 11.026c-21.525 0-38.974 17.449-38.974 38.974 0 12.283 5.688 23.232 14.567 30.376l-14.567 8.599H50c21.525 0 38.975-17.449 38.975-38.975 0-21.525-17.452-38.974-38.975-38.974zm-.001 74.481H23.961l8.242-4.786C21.617 74.574 14.493 63.123 14.493 50c0-19.61 15.896-35.506 35.506-35.506S85.506 30.39 85.506 50c0 19.609-15.897 35.507-35.507 35.507zm16.669-47.86h-8.559v-1.941c0-.833-.544-1.705-1.294-2.071l-1.824-.891a4.972 4.972 0 0 0-1.928-.445h-6.132c-.588 0-1.399.188-1.927.446l-1.82.89c-.75.366-1.293 1.238-1.293 2.071v1.941h-8.559a2.006 2.006 0 0 0-2.004 2.004v12.626c0 .699.354 1.322.895 1.696v11.041c0 1.155.903 2.128 2.055 2.216.062.005 6.34.471 15.722.471 9.381 0 15.659-.466 15.722-.471a2.234 2.234 0 0 0 2.056-2.216v-11.04c.54-.374.895-.997.895-1.696V39.651a2.008 2.008 0 0 0-2.005-2.004zM44.05 35.721a.373.373 0 0 1 .095-.151l1.808-.884c.229-.112.723-.227.979-.227h6.132c.257 0 .751.114.979.227l1.812.884a.39.39 0 0 1 .094.151v1.926H44.05v-1.926zm15.445 4.27v12.337a294.2 294.2 0 0 1-6.357.142 1.942 1.942 0 0 0-1.932-1.769h-2.412a1.942 1.942 0 0 0-1.932 1.769c-2.345-.026-4.492-.08-6.357-.142V39.991h18.99zm-8.168 12.652v2.038a.126.126 0 0 1-.121.122h-2.412a.127.127 0 0 1-.122-.122v-2.038c0-.065.057-.122.122-.122h2.412c.065 0 .121.056.121.122zm-17.655-.629V39.991h4.554v12.253a219.909 219.909 0 0 1-4.554-.23zM65.433 64.9c-.88.062-6.824.456-15.433.456-8.602 0-14.554-.395-15.433-.456V54.414c.857.048 2.109.112 3.659.175v2.109a1.14 1.14 0 0 0 2.279 0v-2.025c1.869.062 4.016.115 6.355.143a1.941 1.941 0 0 0 1.934 1.806h2.412a1.943 1.943 0 0 0 1.934-1.806c2.339-.027 4.486-.08 6.355-.143v2.025a1.14 1.14 0 0 0 2.279 0v-2.109c1.55-.062 2.802-.127 3.659-.175V64.9zm.896-12.886c-.604.038-2.228.135-4.556.23V39.991h4.556v12.023z"></path></g><g id="SvgjsG1090" class="text" transform="translate(230.25600335693358, 64.15800076293945) scale(1)" light-content="false" fill="#195bcc"><path d="M-120.48 -48.6L-120.48 0L-105.96 0C-96.52 0 -91.8 -4.76 -91.8 -14.28C-91.8 -17.76 -92.51 -20.5 -93.93 -22.5C-95.35 -24.5 -97.48 -25.7 -100.32 -26.1C-98.04 -26.5 -96.29 -27.53 -95.07 -29.19C-93.85 -30.85 -93.24 -33.12 -93.24 -36C-93.24 -40.76 -94.54 -44.05 -97.14 -45.87C-99.74 -47.69 -103.4 -48.6 -108.12 -48.6ZM-108.12 -28.98L-110.64 -28.98L-110.64 -41.82L-108.78 -41.82C-106.42 -41.82 -104.68 -41.35 -103.56 -40.41C-102.44 -39.47 -101.88 -37.92 -101.88 -35.76C-101.88 -33.4 -102.32 -31.68 -103.2 -30.6C-104.08 -29.52 -105.72 -28.98 -108.12 -28.98ZM-107.82 -6.96L-110.64 -6.96L-110.64 -22.32L-108 -22.32C-105.56 -22.32 -103.83 -21.71 -102.81 -20.49C-101.79 -19.27 -101.28 -17.26 -101.28 -14.46C-101.28 -11.86 -101.77 -9.96 -102.75 -8.76C-103.73 -7.56 -105.42 -6.96 -107.82 -6.96Z M-73.98 -48.6L-73.98 0L-52.68 0L-52.68 -6.72L-64.14 -6.72L-64.14 -21.96L-55.38 -21.96L-55.38 -28.86L-64.14 -28.86L-64.14 -41.76L-52.8 -41.76L-52.8 -48.6Z M-35.52 -48.6L-35.52 0L-25.62 0L-25.62 -21.72L-24.24 -21.72L-16.56 0L-6.42 0L-15.96 -25.74L-6.96 -48.6L-16.74 -48.6L-24.24 -28.86L-25.62 -28.86L-25.62 -48.6Z M14.46 -41.28L14.46 0L24.42 0L24.42 -41.28L31.8 -41.28L31.8 -48.6L6.96 -48.6L6.96 -41.28Z M50.76 -3.39C52.96 -0.69 56.64 0.66 61.8 0.66C66.92 0.66 70.59 -0.69 72.81 -3.39C75.03 -6.09 76.14 -10.04 76.14 -15.24L76.14 -33.42C76.14 -38.62 75.03 -42.55 72.81 -45.21C70.59 -47.87 66.92 -49.2 61.8 -49.2C56.64 -49.2 52.96 -47.88 50.76 -45.24C48.56 -42.6 47.46 -38.66 47.46 -33.42L47.46 -15.3C47.46 -10.06 48.56 -6.09 50.76 -3.39ZM65.19 -8.13C64.61 -6.99 63.48 -6.42 61.8 -6.42C60.08 -6.42 58.94 -6.98 58.38 -8.1C57.82 -9.22 57.54 -10.8 57.54 -12.84L57.54 -35.82C57.54 -37.82 57.83 -39.37 58.41 -40.47C58.99 -41.57 60.12 -42.12 61.8 -42.12C63.48 -42.12 64.61 -41.57 65.19 -40.47C65.77 -39.37 66.06 -37.82 66.06 -35.82L66.06 -12.84C66.06 -10.84 65.77 -9.27 65.19 -8.13Z M94.74 -48.6L94.74 0L104.58 0L104.58 -21.06L109.14 -21.06C113.42 -21.06 116.76 -22.09 119.16 -24.15C121.56 -26.21 122.76 -29.7 122.76 -34.62C122.76 -43.94 118.56 -48.6 110.16 -48.6ZM108.12 -28.02L104.58 -28.02L104.58 -41.64L108.06 -41.64C109.62 -41.64 110.79 -41.38 111.57 -40.86C112.35 -40.34 112.86 -39.61 113.1 -38.67C113.34 -37.73 113.46 -36.44 113.46 -34.8C113.46 -32.28 113.1 -30.52 112.38 -29.52C111.66 -28.52 110.24 -28.02 108.12 -28.02Z"></path></g></g></svg>