<svg xmlns="http://www.w3.org/2000/svg" width="70.543" height="70.265" viewBox="0 0 70.543 70.265">
  <g id="быстро" transform="translate(0 0)">
    <g id="Group_526" data-name="Group 526" transform="translate(10.207 38.535)">
      <g id="Group_525" data-name="Group 525">
        <path id="Path_2098" data-name="Path 2098" d="M83.693,287.776V278.5H81.429v9.276a3.386,3.386,0,0,0-2.055,2.055H73.5v2.263h5.874a3.392,3.392,0,1,0,4.319-4.319Zm-1.139,4.319a1.139,1.139,0,1,1,1.139-1.139A1.144,1.144,0,0,1,82.554,292.095Z" transform="translate(-73.5 -278.5)" fill="#57993e"/>
      </g>
    </g>
    <g id="Group_528" data-name="Group 528" transform="translate(18.136 4.527)">
      <g id="Group_527" data-name="Group 527">
        <path id="Path_2099" data-name="Path 2099" d="M146.458,33.6H130.6V49.472h15.872V33.6Zm-2.263,13.609H132.863V35.877h11.331Z" transform="translate(-130.6 -33.6)" fill="#57993e"/>
      </g>
    </g>
    <g id="Group_530" data-name="Group 530" transform="translate(21.871 8.36)">
      <g id="Group_529" data-name="Group 529">
        <path id="Path_2100" data-name="Path 2100" d="M164.207,61.2l-3.735,4.68L159.1,64.5l-1.6,1.6,3.152,3.166,5.332-6.652Z" transform="translate(-157.5 -61.2)" fill="#57993e"/>
      </g>
    </g>
    <g id="Group_532" data-name="Group 532" transform="translate(18.136 24.926)">
      <g id="Group_531" data-name="Group 531">
        <rect id="Rectangle_214" data-name="Rectangle 214" width="32.869" height="2.263" fill="#57993e"/>
      </g>
    </g>
    <g id="Group_534" data-name="Group 534" transform="translate(43.062 11.331)">
      <g id="Group_533" data-name="Group 533">
        <rect id="Rectangle_215" data-name="Rectangle 215" width="2.263" height="2.263" fill="#57993e"/>
      </g>
    </g>
    <g id="Group_536" data-name="Group 536" transform="translate(48.727 11.331)">
      <g id="Group_535" data-name="Group 535">
        <rect id="Rectangle_216" data-name="Rectangle 216" width="2.263" height="2.263" fill="#57993e"/>
      </g>
    </g>
    <g id="Group_538" data-name="Group 538" transform="translate(37.396 11.331)">
      <g id="Group_537" data-name="Group 537">
        <rect id="Rectangle_217" data-name="Rectangle 217" width="2.263" height="2.263" fill="#57993e"/>
      </g>
    </g>
    <g id="Group_540" data-name="Group 540" transform="translate(37.396 18.136)">
      <g id="Group_539" data-name="Group 539">
        <rect id="Rectangle_218" data-name="Rectangle 218" width="13.595" height="2.263" fill="#57993e"/>
      </g>
    </g>
    <g id="Group_542" data-name="Group 542" transform="translate(0 0)">
      <g id="Group_541" data-name="Group 541">
        <path id="Path_2101" data-name="Path 2101" d="M68.141,30.62l.805-.805A4.536,4.536,0,1,0,62.531,23.4l-5.86,5.86V1H13.595V33.591A19.263,19.263,0,1,0,37.674,57.671H56.657V42.09l9.873-9.873.805.805-4.8,4.8,1.6,1.6,6.416-6.416ZM36.188,53.144A16.97,16.97,0,0,1,20.4,68.946V66.738H18.136v2.208a16.994,16.994,0,0,1-15.8-15.8H4.541V50.88H2.319a16.994,16.994,0,0,1,15.8-15.8v2.208h2.263V35.077a16.994,16.994,0,0,1,15.8,15.8H33.98v2.263Zm18.219,2.25H38.215a19.62,19.62,0,0,0,.319-3.4,19.279,19.279,0,0,0-19.26-19.26,19.619,19.619,0,0,0-3.4.319V3.263H54.407V31.536L43.881,42.062l-2.139,8.554L50.3,48.478l4.11-4.11V55.393Zm-8.9-10.54,1.972,1.972-2.638.653Zm4.208,1-3.208-3.208L61.739,27.412l3.208,3.208ZM67.335,28.217l-.805.805-3.208-3.208.805-.805a2.268,2.268,0,0,1,3.208,3.208Z" transform="translate(0 -1)" fill="#57993e"/>
      </g>
    </g>
  </g>
</svg>
